<?xml version="1.0" encoding="utf-8"?>
<!-- Generator: Adobe Illustrator 16.0.0, SVG Export Plug-In . SVG Version: 6.00 Build 0)  -->
<!DOCTYPE svg PUBLIC "-//W3C//DTD SVG 1.1//EN" "http://www.w3.org/Graphics/SVG/1.1/DTD/svg11.dtd">
<svg version="1.1" id="Layer_1" xmlns="http://www.w3.org/2000/svg" xmlns:xlink="http://www.w3.org/1999/xlink" x="0px" y="0px"
	 width="173.811px" height="70px" viewBox="0 0 173.811 70" enable-background="new 0 0 173.811 70" xml:space="preserve">
<g>
	<path fill="#4DC484" d="M93.239,24.219l-0.01-0.44c0.148-0.006,0.3-0.006,0.457-0.006h0.223l-0.078,0.142v0.223l-0.135,0.082
		H93.239z"/>
	<path fill="#4DC484" d="M93.695,23.915h-0.009c-0.153,0-0.3,0.005-0.447,0.012h0.456V23.915z"/>
	<path fill="#00AA4F" d="M93.385,24.219v-0.516l0.267-0.012c0.14,0,0.301,0.041,0.44,0.047l0.012,0.48L93.385,24.219L93.385,24.219z
		"/>
	<path fill="#00AA4F" d="M94.104,23.926c-0.136-0.006-0.273-0.012-0.409-0.012v0.012H94.104z"/>
	<path fill="#4DC484" d="M92.598,9.5l-0.006-0.438c0.342-0.01,0.714-0.008,1.104-0.008h0.135v0.53L93.695,9.5H92.598z"/>
	<path fill="#4DC484" d="M93.695,9.362c-0.366,0-0.736,0.004-1.097,0.016h1.097V9.362z"/>
	<path fill="#00AA4F" d="M93.385,9.5V9.155l0.267-0.016c0.118,0,0.227,0.004,0.33,0.008c0.096,0.004,0.294,0.008,0.294,0.008V9.5
		H93.385z"/>
	<path fill="#00AA4F" d="M94.308,9.378c-0.2,0-0.396-0.015-0.6-0.015h-0.013v0.015H94.308z"/>
	<path fill="#CBDC2E" d="M44.144,16.859l0.333-0.365c1.57-1.756,3.445-3.24,5.498-4.417l0.371-0.188v4.971H44.144z"/>
	<path fill="#CBDC2E" d="M50.049,12.273c-2.031,1.165-3.859,2.646-5.406,4.374h5.406V12.273z"/>
	<path fill="#D5E255" d="M49.899,16.859v-4.711l0.075-0.064c2.264-1.304,4.685-2.186,7.3-2.622l0.207-0.043v7.44H49.899z"/>
	<path fill="#D5E255" d="M57.328,16.647V9.683c-2.613,0.435-5.069,1.323-7.279,2.595v4.37H57.328z"/>
	<path fill="#CFDF40" d="M57.036,16.859V9.494l0.221-0.032c1.218-0.203,2.476-0.307,3.705-0.307c1.205,0,2.453,0.096,3.671,0.286
		l0.209,0.028v7.39H57.036z"/>
	<path fill="#CFDF40" d="M57.328,16.647h7.268V9.661c-1.176-0.183-2.382-0.283-3.618-0.283c-1.245,0-2.462,0.105-3.65,0.305V16.647z
		"/>
	<path fill="#D5E255" d="M64.395,16.859v-7.46l0.248,0.042c2.636,0.425,5.156,1.283,7.396,2.549l0.162,0.064v4.805H64.395z"/>
	<path fill="#D5E255" d="M71.87,12.185c-2.203-1.247-4.662-2.103-7.274-2.524v6.987h7.274V12.185z"/>
	<path fill="#CADB2A" d="M71.754,16.859v-5.057l0.278,0.188c1.811,1.02,3.42,2.282,4.838,3.751c0.202,0.214,0.391,0.427,0.589,0.644
		l0.428,0.474H71.754z"/>
	<path fill="#CADB2A" d="M77.379,16.647c-0.228-0.248-0.464-0.504-0.696-0.751c-1.416-1.467-3.037-2.711-4.814-3.711v4.462H77.379z"
		/>
	<path fill="#91CD6D" d="M82.073,16.859l-0.067-0.089c-0.908-1.299-1.922-2.51-3.014-3.603l-0.191-0.19l0.224-0.15
		c2.043-1.375,4.541-2.376,7.374-2.978l0.295-0.057v7.067H82.073z"/>
	<path fill="#91CD6D" d="M86.421,10.067c-2.638,0.559-5.116,1.495-7.271,2.945c1.126,1.128,2.145,2.356,3.038,3.635h4.232V10.067
		L86.421,10.067z"/>
	<path fill="#00AA4F" d="M86.249,16.859V9.887l0.151-0.088c1.915-0.408,3.982-0.521,6.194-0.744h1.237v7.805H86.249z"/>
	<path fill="#00AA4F" d="M86.421,16.647h7.274v-7.27h-1.097c-2.106,0.049-4.188,0.265-6.177,0.689V16.647z"/>
	<path fill="#33BB72" d="M93.385,16.859V9.055h0.923c2.294,0.223,4.553,0.454,6.724,1.097l0.158,0.098v6.61H93.385z"/>
	<path fill="#33BB72" d="M93.695,16.647h7.276v-6.232c-2.121-0.627-4.354-0.985-6.663-1.038h-0.613V16.647L93.695,16.647z"/>
	<path fill="#33BB72" d="M100.744,16.859v-6.743l0.289,0.085c2.615,0.781,5.125,1.97,7.377,3.535l0.139,0.066v3.057H100.744z"/>
	<path fill="#33BB72" d="M108.244,13.919c-2.2-1.527-4.649-2.721-7.272-3.504v6.236h7.272V13.919z"/>
	<path fill="#66CC95" d="M108.103,16.859v-3.368l0.31,0.246c1.176,0.822,2.276,1.742,3.31,2.745l0.375,0.377H108.103z"/>
	<path fill="#66CC95" d="M111.546,16.647c-1.022-0.992-2.126-1.906-3.303-2.728v2.728H111.546z"/>
	<rect x="9.76" y="16.414" fill="#DA2128" width="4.237" height="7.805"/>
	<rect x="10.047" y="16.647" fill="#DA2128" width="3.636" height="7.279"/>
	<rect x="13.551" y="16.414" fill="#EF3824" width="7.582" height="7.805"/>
	<rect x="13.683" y="16.647" fill="#EF3824" width="7.277" height="7.279"/>
	<rect x="20.687" y="16.414" fill="#EF3824" width="4.237" height="7.805"/>
	<rect x="20.96" y="16.647" fill="#EF3824" width="3.639" height="7.279"/>
	<path fill="#F47B4E" d="M40.054,24.219l0.102-0.331c0.597-1.725,1.409-3.396,2.43-4.932l0.402-0.632v5.895H40.054z"/>
	<path fill="#F47B4E" d="M42.779,19.062c-0.996,1.498-1.813,3.131-2.412,4.864h2.412V19.062z"/>
	<path fill="#FBB040" d="M42.541,24.219v-5.223l0.044-0.056c0.554-0.835,1.191-1.662,1.887-2.445l0.07-0.081h5.804v7.805H42.541
		L42.541,24.219z"/>
	<path fill="#FBB040" d="M42.779,23.926h7.27v-7.279h-5.406c-0.677,0.762-1.299,1.564-1.864,2.415V23.926z"/>
	<rect x="49.899" y="16.414" fill="#CBDC2E" width="7.582" height="7.805"/>
	<rect x="50.049" y="16.647" fill="#CBDC2E" width="7.279" height="7.279"/>
	<rect x="57.036" y="16.414" fill="#D5E255" width="7.805" height="7.805"/>
	<polygon fill="#D5E255" points="60.928,23.926 64.596,23.926 64.596,16.647 57.328,16.647 57.328,23.926 	"/>
	<rect x="64.395" y="16.414" fill="#CADB2A" width="7.805" height="7.805"/>
	<rect x="64.596" y="16.647" fill="#CADB2A" width="7.274" height="7.279"/>
	<path fill="#D5E255" d="M71.754,24.219v-7.805h5.727l0.067,0.083c0.617,0.711,1.2,1.499,1.768,2.335l0.02,0.06v5.328H71.754z"/>
	<path fill="#D5E255" d="M71.87,23.926h7.281v-4.967c-0.545-0.801-1.134-1.577-1.771-2.312h-5.51V23.926z"/>
	<path fill="#72BF44" d="M81.946,24.219H78.89v-5.994l0.427,0.611c1.061,1.585,1.915,3.308,2.518,5.052L81.946,24.219z
		 M79.336,23.772h1.98c-0.499-1.338-1.088-2.779-1.98-4.056V23.772z"/>
	<path fill="#72BF44" d="M79.15,18.959v4.967h2.482C81.028,22.181,80.189,20.513,79.15,18.959"/>
	<path fill="#72BF44" d="M85.581,24.219l-0.047-0.193c-0.765-2.523-1.952-4.975-3.528-7.239l-0.244-0.374h4.933v7.805H85.581z"/>
	<path fill="#72BF44" d="M86.421,23.926v-7.279h-4.232c1.575,2.264,2.785,4.727,3.558,7.279H86.421z"/>
	<path fill="#4DC484" d="M86.249,24.219v-7.805h7.582v7.805h-0.135c-0.159,0-0.303,0-0.446,0h-0.005H86.249z"/>
	<path fill="#4DC484" d="M93.239,23.926c0.146-0.006,0.294-0.012,0.447-0.012h0.009v-7.267h-7.274v7.279H93.239L93.239,23.926z"/>
	<path fill="#00AA4F" d="M101.19,24.219h-7.085c-0.144,0-0.276,0-0.409,0h-0.31v-7.805h7.805V24.219z M93.831,23.695
		c0.224,0.002,0.219,0.077,0.284,0.077h6.629v-6.913h-6.913V23.695z"/>
	<path fill="#00AA4F" d="M94.104,23.926h6.867v-7.279h-7.276v7.267C93.832,23.915,93.968,23.92,94.104,23.926"/>
	<rect x="100.744" y="16.414" fill="#4DC484" width="7.805" height="7.805"/>
	<rect x="100.972" y="16.647" fill="#4DC484" width="7.272" height="7.279"/>
	<path fill="#29AAE2" d="M115.684,24.219h-7.582v-7.805h3.535l0.065,0.07c1.542,1.52,2.862,3.224,3.976,5.061l0.005,0.057V24.219
		L115.684,24.219z M108.549,23.772h6.689v-2.047c-1.115-1.759-2.309-3.305-3.783-4.866h-2.907V23.772z"/>
	<path fill="#29AAE2" d="M111.546,16.647h-3.303v7.279h7.272v-2.264C114.402,19.825,113.067,18.146,111.546,16.647"/>
	<path fill="#6AC4EB" d="M115.238,24.219v-3.35l0.441,0.678c0.435,0.711,0.861,1.515,1.24,2.319l0.164,0.353H115.238L115.238,24.219
		z"/>
	<path fill="#6AC4EB" d="M116.732,23.926c-0.366-0.776-0.773-1.539-1.216-2.264v2.264H116.732z"/>
	<rect x="9.76" y="23.772" fill="#EF3824" width="4.237" height="7.582"/>
	<rect x="10.047" y="23.926" fill="#EF3824" width="3.636" height="7.27"/>
	<rect x="13.551" y="23.772" fill="#EF3824" width="7.582" height="7.582"/>
	<rect x="13.683" y="23.926" fill="#EF3824" width="7.277" height="7.27"/>
	<rect x="20.687" y="23.772" fill="#DA2128" width="4.237" height="7.582"/>
	<rect x="20.96" y="23.926" fill="#DA2128" width="3.639" height="7.27"/>
	<path fill="#F47B4E" d="M38.973,31.354v-0.338c0-2.441,0.394-4.817,1.196-7.129l0.039-0.115h2.779v7.582H38.973z"/>
	<path fill="#F47B4E" d="M39.169,31.196h3.61v-7.27h-2.412c-0.771,2.222-1.198,4.604-1.198,7.09V31.196z"/>
	<rect x="42.541" y="23.772" fill="#F15A22" width="7.805" height="7.582"/>
	<rect x="42.779" y="23.926" fill="#F15A22" width="7.27" height="7.27"/>
	<path fill="#D5E255" d="M49.899,31.354v-7.582h7.582v1.203l-0.074,0.063c-2.214,1.218-3.494,3.453-3.494,5.978v0.338H49.899z"/>
	<path fill="#D5E255" d="M53.674,31.196v-0.18c0-2.697,1.466-4.971,3.651-6.173v-0.917h-7.277v7.27H53.674z"/>
	<path fill="#CADB2A" d="M64.447,25.072c-1.072-0.604-2.282-0.923-3.62-0.923v-0.376h4.014v1.486L64.447,25.072z"/>
	<path fill="#CADB2A" d="M64.596,23.926h-3.668c1.335,0,2.59,0.345,3.668,0.952V23.926z"/>
	<path fill="#CADB2A" d="M57.036,25.222v-1.45h3.791v0.376c-1.115,0-2.42,0.308-3.477,0.89L57.036,25.222z M57.481,24.219v0.259
		c0.223-0.124,0.583-0.259,0.85-0.259H57.481z"/>
	<path fill="#CADB2A" d="M60.928,23.926h-3.6v0.917C58.387,24.26,59.616,23.926,60.928,23.926"/>
	<path fill="#CADB2A" d="M72.2,31.354h-4.238v-0.338c0-2.496-1.282-4.718-3.487-5.944l-0.08-0.063v-1.236H72.2V31.354z
		 M68.455,30.908h3.299v-6.689h-6.913v0.529C67.071,26.058,68.44,28.455,68.455,30.908z"/>
	<path fill="#CADB2A" d="M68.232,31.017v0.18h3.637v-7.27h-7.274v0.952C66.764,26.083,68.232,28.351,68.232,31.017"/>
	<rect x="71.754" y="23.772" fill="#72BF44" width="7.582" height="7.582"/>
	<rect x="71.87" y="23.926" fill="#72BF44" width="7.281" height="7.27"/>
	<path fill="#9DD27C" d="M86.227,26.722c-0.172-0.939-0.41-1.824-0.68-2.694l-0.102-0.255h1.25v2.924L86.227,26.722z"/>
	<path fill="#9DD27C" d="M86.421,23.926h-0.674c0.283,0.91,0.505,1.833,0.674,2.755V23.926z"/>
	<path fill="#9DD27C" d="M78.89,31.354v-7.582h2.901v0.115c0.774,2.211,1.113,4.431,1.113,6.668v0.799H78.89z"/>
	<path fill="#9DD27C" d="M82.785,31.196v-0.641c0-2.255-0.407-4.495-1.152-6.628h-2.482v7.27H82.785L82.785,31.196z"/>
	<path fill="#72BF44" d="M86.303,27.187l-0.086-0.393c-0.008-0.031-0.015-0.028-0.018-0.059l0-2.962h7.041l0.01,0.411
		c-0.765,0.032-1.499,0.126-2.18,0.315c-1.645,0.419-3.15,1.233-4.481,2.437L86.303,27.187z M86.694,24.219v2.069
		c1.115-1.003,2.471-1.624,3.899-2.069H86.694z"/>
	<path fill="#72BF44" d="M86.438,26.762c1.299-1.176,2.811-2.047,4.571-2.496c0.696-0.192,1.443-0.308,2.23-0.34h-6.818v2.755
		C86.423,26.709,86.433,26.737,86.438,26.762"/>
	<path fill="#80C657" d="M101.19,27.192l-0.369-0.33c-0.501-0.445-1.034-0.84-1.584-1.173c-1.55-0.94-3.327-1.438-5.141-1.506
		l0.009-0.412h7.085V27.192z M96.838,24.219c0.921,0.223,1.804,0.625,2.628,1.124c0.44,0.265,0.831,0.534,1.278,0.871v-1.995H96.838
		z"/>
	<path fill="#80C657" d="M100.972,26.696v-2.77h-6.867c1.92,0.072,3.706,0.638,5.248,1.572
		C99.931,25.849,100.471,26.251,100.972,26.696"/>
	<path fill="#1B75BC" d="M103.836,31.354l-0.053-0.116c-0.6-1.686-1.627-3.193-2.964-4.393l-0.076-0.05v-3.023h7.805v7.582H103.836z
		"/>
	<path fill="#1B75BC" d="M100.972,26.696c1.353,1.213,2.402,2.758,3.022,4.5h4.25v-7.27h-7.272V26.696z"/>
	<rect x="108.103" y="23.772" fill="#3283C3" width="7.582" height="7.582"/>
	<rect x="108.244" y="23.926" fill="#3283C3" width="7.272" height="7.27"/>
	<path fill="#54BBE8" d="M115.238,31.354v-7.582h1.634l0.061,0.093c1.098,2.309,1.842,4.727,2.211,7.284l0.036,0.206L115.238,31.354
		L115.238,31.354z"/>
	<path fill="#54BBE8" d="M115.516,31.196h3.407c-0.369-2.561-1.115-5.008-2.191-7.27h-1.216L115.516,31.196L115.516,31.196z"/>
	<path fill="#DA2128" d="M9.848,38.713l-0.051-0.21c-0.004-0.038-0.036-0.082-0.036-0.122v-7.473h4.237v7.805H9.848z"/>
	<path fill="#DA2128" d="M13.683,31.196h-3.636v7.185c0,0.033,0,0.062,0.003,0.092h3.632V31.196L13.683,31.196z"/>
	<rect x="13.551" y="30.908" fill="#ED1C24" width="7.582" height="7.805"/>
	<rect x="13.683" y="31.196" fill="#ED1C24" width="7.277" height="7.277"/>
	<rect x="20.687" y="30.908" fill="#EF3824" width="4.237" height="7.805"/>
	<path fill="#EF3824" d="M24.599,31.196H20.96v7.277h3.639c0-0.03,0-0.059,0-0.092V31.196z"/>
	<rect x="38.973" y="30.908" fill="#F15A22" width="4.014" height="7.805"/>
	<path fill="#F15A22" d="M39.169,31.196v7.185c0,0.033,0,0.062,0,0.092h3.61v-7.277H39.169z"/>
	<rect x="42.541" y="30.908" fill="#F26632" width="7.805" height="7.805"/>
	<rect x="42.779" y="31.196" fill="#F26632" width="7.27" height="7.277"/>
	<path fill="#F47B4E" d="M49.899,38.713v-7.805h4.015v7.473c0,0.024,0.001,0.046-0.001,0.069l0.001,0.022v0.24H49.899z"/>
	<path fill="#F47B4E" d="M53.674,31.196h-3.625v7.277h3.62c0-0.03,0.006-0.059,0.006-0.092V31.196z"/>
	<path fill="#8ECC69" d="M68.304,38.713l-0.05-0.2c-0.178-1.229-0.292-2.472-0.292-3.675v-3.93H72.2v7.805H68.304z"/>
	<path fill="#8ECC69" d="M68.232,31.196v3.642c0,1.236,0.094,2.446,0.265,3.635h3.372v-7.277H68.232z"/>
	<rect x="71.754" y="30.908" fill="#80C657" width="7.582" height="7.805"/>
	<rect x="71.87" y="31.196" fill="#80C657" width="7.281" height="7.277"/>
	<path fill="#72BF44" d="M83.732,38.713H78.89v-7.805h4.014v3.9c0,1.219,0.26,2.435,0.671,3.599L83.732,38.713z M79.336,38.267h3.77
		c-0.361-1.114-0.648-2.293-0.648-3.458v-3.454h-3.122V38.267z"/>
	<path fill="#72BF44" d="M82.785,31.196H79.15v7.277h4.267c-0.404-1.144-0.632-2.379-0.632-3.665
		C82.785,34.791,82.785,33.269,82.785,31.196"/>
	<path fill="#29AAE2" d="M108.549,38.713h-4.871l0.106-0.307c0.405-1.134,0.609-2.337,0.609-3.567c0-1.226-0.205-2.459-0.61-3.6
		l-0.105-0.332h4.871V38.713z M104.305,38.267h3.797v-6.913h-3.798c0.354,1.115,0.535,2.287,0.535,3.458
		C104.839,35.985,104.66,37.153,104.305,38.267z"/>
	<path fill="#29AAE2" d="M103.994,38.473h4.25v-7.277h-4.25c0.405,1.14,0.623,2.37,0.623,3.64
		C104.617,36.114,104.398,37.339,103.994,38.473"/>
	<rect x="108.103" y="30.908" fill="#6AC4EB" width="7.582" height="7.805"/>
	<rect x="108.244" y="31.196" fill="#6AC4EB" width="7.272" height="7.277"/>
	<path fill="#29AAE2" d="M115.238,38.713v-7.805h3.878l0.027,0.224c0.176,1.227,0.265,2.479,0.265,3.689
		c0,1.202-0.088,2.452-0.261,3.683l-0.027,0.209H115.238z"/>
	<path fill="#29AAE2" d="M115.516,38.473h3.412c0.167-1.188,0.258-2.399,0.258-3.635c0-1.235-0.091-2.447-0.263-3.642h-3.407V38.473
		z"/>
	<path fill="#ED1C24" d="M11.152,46.072l-0.053-0.2c-0.831-2.355-1.259-4.844-1.272-7.364l-0.002-0.241h4.172v7.805H11.152z"/>
	<path fill="#ED1C24" d="M13.683,38.473H10.05c0.013,2.548,0.457,4.997,1.26,7.273h2.372V38.473L13.683,38.473z"/>
	<rect x="13.551" y="38.267" fill="#DA2128" width="7.582" height="7.805"/>
	<rect x="13.683" y="38.473" fill="#DA2128" width="7.277" height="7.273"/>
	<path fill="#ED1C24" d="M28.492,46.072h-7.805v-7.805h4.132l0.003,0.212c0.029,2.492,1.398,4.817,3.541,6.079l0.129,0.061V46.072
		L28.492,46.072z M21.133,45.627h6.913v-0.755c-2.23-1.315-3.561-3.705-3.665-6.158h-3.249V45.627z"/>
	<path fill="#ED1C24" d="M24.599,38.473H20.96v7.273h7.27v-1.001C26.081,43.481,24.63,41.127,24.599,38.473"/>
	<path fill="#DA2128" d="M35.628,46.072h-3.791v-0.549c1.337,0,2.419-0.334,3.487-0.966l0.303-0.2V46.072z M34.385,45.627h0.796
		v-0.499C34.959,45.28,34.691,45.403,34.385,45.627z"/>
	<path fill="#DA2128" d="M31.869,45.746h3.633V44.75C34.43,45.384,33.19,45.746,31.869,45.746"/>
	<path fill="#DA2128" d="M28.046,46.072v-1.72l0.303,0.201c1.06,0.635,2.374,0.97,3.489,0.97v0.549H28.046z"/>
	<path fill="#DA2128" d="M28.229,45.746h3.639c-1.322,0-2.571-0.362-3.639-1.001V45.746z"/>
	<path fill="#F15A22" d="M35.182,46.072v-1.451l0.159-0.064c2.156-1.262,3.544-3.585,3.582-6.079l0.027-0.211h4.038v7.805H35.182z"
		/>
	<path fill="#F15A22" d="M39.169,38.473c-0.04,2.657-1.502,5.009-3.667,6.276v0.997h7.277v-7.273H39.169L39.169,38.473z"/>
	<rect x="42.541" y="38.267" fill="#F15A22" width="7.805" height="7.805"/>
	<rect x="42.779" y="38.473" fill="#F15A22" width="7.27" height="7.273"/>
	<path fill="#F47B4E" d="M49.899,46.072v-7.805h3.994l-0.002,0.216c-0.011,2.511-0.441,5.03-1.278,7.394l-0.053,0.196H49.899z"/>
	<path fill="#F47B4E" d="M50.049,38.473v7.273h2.355c0.805-2.276,1.253-4.725,1.265-7.273H50.049z"/>
	<path fill="#72BF44" d="M70.543,46.072l-0.061-0.178c-1.097-2.308-1.839-4.793-2.206-7.355l-0.036-0.272H72.2v7.805H70.543z"/>
	<path fill="#72BF44" d="M68.498,38.473c0.368,2.567,1.112,5.015,2.187,7.273h1.186v-7.273H68.498z"/>
	<rect x="71.754" y="38.267" fill="#80C657" width="7.582" height="7.805"/>
	<rect x="71.87" y="38.473" fill="#80C657" width="7.281" height="7.273"/>
	<path fill="#9DD27C" d="M86.694,46.072H78.89v-7.805h4.684l0.053,0.14c0.602,1.683,1.646,3.197,2.969,4.387l0.099,0.062V46.072z
		 M79.336,45.627h6.913v-2.573c-1.337-1.194-2.366-2.78-2.988-4.341h-3.925V45.627z"/>
	<path fill="#9DD27C" d="M83.417,38.473H79.15v7.273h7.271v-2.792C85.079,41.748,84.038,40.21,83.417,38.473"/>
	<path fill="#72BF44" d="M86.249,46.072v-3.617l0.308,0.334c1.964,1.763,4.598,2.734,7.052,2.734v0.549H86.249z"/>
	<path fill="#72BF44" d="M86.421,45.746h7.265c-2.794,0-5.334-1.059-7.265-2.792V45.746z"/>
	<polygon fill="#72BF44" points="93.686,45.969 93.686,45.523 93.695,45.969 	"/>
	<path fill="#72BF44" d="M93.686,45.746h0.009H93.686z"/>
	<path fill="#609FD0" d="M101.19,46.072h-7.582v-0.549c0.668,0,1.089-0.04,1.622-0.118c2.059-0.301,3.997-1.198,5.571-2.594
		l0.389-0.329L101.19,46.072L101.19,46.072z M96.824,45.627h3.919V43.46C99.628,44.41,98.25,45.181,96.824,45.627z"/>
	<path fill="#609FD0" d="M95.307,45.625c-0.528,0.078-1.064,0.121-1.611,0.121h7.279v-2.768
		C99.416,44.36,97.465,45.311,95.307,45.625"/>
	<path fill="#6AC4EB" d="M100.744,46.072v-3.194l0.077-0.066c1.337-1.197,2.362-2.714,2.962-4.405l0.054-0.14h4.712v7.805H100.744z"
		/>
	<path fill="#6AC4EB" d="M103.994,38.473c-0.62,1.749-1.669,3.294-3.022,4.505v2.768h7.272v-7.273H103.994z"/>
	<rect x="108.103" y="38.267" fill="#29AAE2" width="7.582" height="7.805"/>
	<rect x="108.244" y="38.473" fill="#29AAE2" width="7.272" height="7.273"/>
	<path fill="#2B7FC1" d="M115.238,46.072v-7.805h3.947l-0.037,0.246c-0.374,2.569-1.118,5.084-2.212,7.385l-0.061,0.174H115.238z"/>
	<path fill="#2B7FC1" d="M115.516,45.746h1.218c1.075-2.258,1.82-4.706,2.193-7.273h-3.412V45.746z"/>
	<path fill="#EF3824" d="M13.542,50.637c-0.984-1.484-1.813-3.053-2.42-4.765l-0.128-0.246h3.003v5.627L13.542,50.637z"/>
	<path fill="#EF3824" d="M11.311,45.746c0.6,1.695,1.396,3.294,2.372,4.768v-4.768H11.311z"/>
	<path fill="#ED1C24" d="M15.508,53.208l-0.066-0.057c-0.697-0.778-1.305-1.622-1.9-2.524l0.009-0.047v-4.953h7.582v7.582H15.508z"
		/>
	<path fill="#ED1C24" d="M20.96,45.746h-7.277v4.768c0.583,0.884,1.225,1.724,1.925,2.507h5.352V45.746z"/>
	<rect x="20.687" y="45.627" fill="#DA2128" width="7.805" height="7.582"/>
	<rect x="20.96" y="45.746" fill="#DA2128" width="7.27" height="7.274"/>
	<rect x="28.046" y="45.627" fill="#EF3824" width="7.582" height="7.582"/>
	<polygon fill="#EF3824" points="31.869,45.746 28.229,45.746 28.229,53.021 35.502,53.021 35.502,45.746 	"/>
	<rect x="35.182" y="45.627" fill="#DA2128" width="7.806" height="7.582"/>
	<rect x="35.502" y="45.746" fill="#DA2128" width="7.277" height="7.274"/>
	<path fill="#EF3824" d="M42.541,53.208v-7.582h7.805v4.9l-0.074,0.056c-0.613,0.932-1.299,1.785-2.004,2.569l-0.085,0.057H42.541z"
		/>
	<path fill="#EF3824" d="M50.049,45.746h-7.27v7.274h5.304c0.717-0.798,1.374-1.661,1.965-2.56L50.049,45.746L50.049,45.746z"/>
	<path fill="#F15A22" d="M49.899,45.627h2.82l-0.106,0.246c-0.601,1.686-1.364,3.263-2.342,4.736L49.899,51.2V45.627z"/>
	<path fill="#F15A22" d="M50.049,50.46c0.965-1.455,1.757-3.039,2.355-4.714h-2.355V50.46z"/>
	<path fill="#8ECC69" d="M72.2,48.763l-0.468-0.684c-0.407-0.674-0.825-1.354-1.223-2.185l-0.18-0.268H72.2V48.763z M71.04,46.072
		c0.202,0.224,0.491,0.694,0.714,1.061v-1.061H71.04z"/>
	<path fill="#8ECC69" d="M71.87,47.963v-2.217h-1.186C71.048,46.508,71.438,47.248,71.87,47.963"/>
	<path fill="#72BF44" d="M75.778,53.208l-0.065-0.046c-1.551-1.521-2.855-3.229-3.981-5.093l0.021-0.044v-2.399h7.582v7.582H75.778z
		"/>
	<path fill="#72BF44" d="M79.15,45.746H71.87v2.217c1.122,1.856,2.466,3.553,4,5.058h3.281V45.746z"/>
	<rect x="78.89" y="45.627" fill="#80C657" width="7.805" height="7.582"/>
	<rect x="79.15" y="45.746" fill="#80C657" width="7.271" height="7.274"/>
	<polygon fill="#00AA4F" points="86.249,53.208 86.249,45.627 93.909,45.627 93.831,45.746 93.831,53.208 	"/>
	<polygon fill="#00AA4F" points="93.686,45.746 86.421,45.746 86.421,53.021 93.695,53.021 93.695,45.746 	"/>
	<rect x="93.385" y="45.627" fill="#1B75BC" width="7.805" height="7.582"/>
	<rect x="93.695" y="45.746" fill="#1B75BC" width="7.276" height="7.274"/>
	<rect x="100.744" y="45.627" fill="#3283C3" width="7.805" height="7.582"/>
	<rect x="100.972" y="45.746" fill="#3283C3" width="7.272" height="7.274"/>
	<path fill="#2B7FC1" d="M108.103,53.208v-7.582h7.582v2.453l-0.004,0.053c-1.107,1.833-2.44,3.514-3.988,5.03l-0.052,0.045H108.103
		z"/>
	<path fill="#2B7FC1" d="M108.244,45.746v7.274h3.305c1.523-1.49,2.858-3.165,3.968-5.002v-2.272H108.244z"/>
	<path fill="#1B75BC" d="M115.238,45.627h1.848l-0.149,0.267c-0.37,0.781-0.811,1.527-1.257,2.266l-0.441,0.659V45.627z"/>
	<path fill="#1B75BC" d="M115.516,48.018c0.442-0.732,0.85-1.49,1.218-2.272h-1.218V48.018z"/>
	<path fill="#EF3824" d="M20.823,57.589c-2.023-1.175-3.83-2.68-5.394-4.438l-0.317-0.388h6.021v5.021L20.823,57.589z"/>
	<path fill="#EF3824" d="M15.608,53.021c1.538,1.728,3.339,3.207,5.352,4.376v-4.376H15.608z"/>
	<path fill="#ED1C24" d="M28.212,60.246c-2.599-0.436-5.104-1.33-7.38-2.657l-0.145-0.064v-4.762h7.805v7.527L28.212,60.246z"/>
	<path fill="#ED1C24" d="M20.96,57.396c2.205,1.287,4.656,2.191,7.27,2.63v-7.006h-7.27V57.396z"/>
	<path fill="#DA2128" d="M30.675,60.567c-0.797,0-1.586-0.154-2.461-0.296l-0.168-0.055v-7.454h7.582v7.437l-0.137,0.057
		c-0.878,0.15-1.687,0.311-2.499,0.311h-0.005H30.675z"/>
	<path fill="#DA2128" d="M35.502,53.021h-7.272v7.006c0.801,0.13,1.62,0.227,2.445,0.269h2.307c0.856-0.042,1.701-0.144,2.521-0.284
		V53.021z"/>
	<path fill="#EF3824" d="M35.182,52.763h7.806v4.727l-0.103,0.065c-2.277,1.333-4.795,2.234-7.396,2.677l-0.306,0.044V52.763z"/>
	<path fill="#EF3824" d="M35.502,53.021v6.991c2.61-0.445,5.068-1.357,7.277-2.65v-4.341H35.502z"/>
	<path fill="#F15A22" d="M42.541,52.763h6.04l-0.332,0.388c-1.542,1.73-3.353,3.215-5.365,4.394l-0.343,0.206L42.541,52.763
		L42.541,52.763z"/>
	<path fill="#F15A22" d="M42.779,57.361c1.989-1.165,3.777-2.627,5.304-4.341h-5.304V57.361z"/>
	<path fill="#80C657" d="M79.004,55.917c-1.168-0.81-2.272-1.748-3.3-2.755l-0.381-0.4h4.013v3.397L79.004,55.917z"/>
	<path fill="#80C657" d="M75.87,53.021c1.015,0.993,2.111,1.903,3.281,2.714v-2.714H75.87z"/>
	<path fill="#72BF44" d="M86.383,59.462c-2.613-0.776-5.113-1.97-7.366-3.545l-0.127-0.067v-3.088h7.805v6.786L86.383,59.462z"/>
	<path fill="#72BF44" d="M79.15,55.734c2.195,1.535,4.638,2.732,7.271,3.515v-6.229H79.15V55.734z"/>
	<path fill="#29AAE2" d="M92.974,60.567c-2.26-0.223-4.458-0.441-6.591-1.076l-0.134-0.072v-6.657h7.582v7.805H92.974z"/>
	<path fill="#29AAE2" d="M93.695,53.021h-7.274v6.232c2.08,0.62,4.279,0.979,6.553,1.042h0.721L93.695,53.021L93.695,53.021z"/>
	<path fill="#4D93CB" d="M93.385,60.567v-7.805h7.805v6.665l-0.158,0.072c-2.13,0.63-4.342,1.068-6.578,1.068H94.45H93.385z"/>
	<path fill="#4D93CB" d="M100.972,53.021h-7.277v7.275h0.752c2.263-0.063,4.442-0.419,6.524-1.035V53.021z"/>
	<path fill="#2B7FC1" d="M100.744,52.763h7.805v3.116l-0.138,0.066c-2.267,1.57-4.757,2.757-7.358,3.529l-0.31,0.085V52.763z"/>
	<path fill="#2B7FC1" d="M100.972,53.021v6.24c2.623-0.778,5.072-1.976,7.272-3.499v-2.741H100.972L100.972,53.021z"/>
	<path fill="#4D93CB" d="M108.103,52.763h3.992l-0.39,0.4c-1.037,1.015-2.117,1.954-3.293,2.773l-0.309,0.253V52.763z"/>
	<path fill="#4D93CB" d="M108.244,55.761c1.176-0.819,2.281-1.737,3.305-2.741h-3.305V55.761z"/>
	<path fill="#DA2128" d="M31.831,60.551c-0.38,0-0.774,0.014-1.169-0.008l0.013-0.422h2.307l0.012,0.422
		C32.599,60.564,32.208,60.551,31.831,60.551z"/>
	<path fill="#DA2128" d="M31.831,60.328c0.386,0,0.769-0.011,1.15-0.033h-2.307C31.057,60.317,31.444,60.328,31.831,60.328"/>
	<path fill="#29AAE2" d="M93.652,60.536c-0.245,0-0.462,0.015-0.702,0.007l0.024-0.422h0.856v0.397L93.652,60.536z"/>
	<path fill="#29AAE2" d="M92.974,60.295c0.24,0.009,0.477,0.018,0.721,0.018v-0.018H92.974z"/>
	<path fill="#4D93CB" d="M93.385,60.567V60.09l0.31,0.031h0.752l0.008,0.438c-0.244,0.009-0.491,0.009-0.752,0.009H93.385z"/>
	<path fill="#4D93CB" d="M93.695,60.312h0.007c0.259,0,0.503-0.008,0.745-0.018h-0.752L93.695,60.312L93.695,60.312z"/>
	<polygon fill="#FFFFFF" points="164.379,18.8 154.214,18.789 151.103,28.311 148.306,18.781 148.198,18.813 148.225,18.757 
		121.407,18.753 121.399,27.514 128.382,27.526 128.356,49.274 137.475,49.287 137.499,27.534 141.364,27.542 150.988,51.045 	"/>
</g>
</svg>
